# xmcd
#
# Track frame offsets:
#	150
#	14265
#	33544
#	48954
#	64994
#	77643
#	96771
#	115138
#	130103
#	146690
#	163397
#	180395
#	197755
#	214605
#	232866
#	250006
#	266525
#	280921
#	296371
#
# Disc length: 4120 seconds
#
# Revision: 0
# Processed by: cddbd v1.4PL0 Copyright (c) Steve Scherf et al.
# Submitted via: EasyCDDAExtractor 4.6.9.1
#
DISCID=0b101613
DTITLE=Axé Pro Side Vol1
DYEAR=1900
DGENRE=
TTITLE0=Nega Danada
TTITLE1=é assim
TTITLE2=Mestre mandou
TTITLE3=Balanço do Navio
TTITLE4=Toma Toma - Bonde do Vinho
TTITLE5=Flutua
TTITLE6=Astral (Ivete)
TTITLE7=Rolo Compressor
TTITLE8=Swingueira
TTITLE9=Vira Vira
TTITLE10=Festa do Gueto
TTITLE11=Swingue do Bum
TTITLE12=Nego Lindo
TTITLE13=Tirebote
TTITLE14=Fissura
TTITLE15=Ilha do Pirata
TTITLE16=Planeta Xuxa
TTITLE17=Largadinho/Empinadinho
TTITLE18=Pegando Fogo
EXTD=
EXTT0=
EXTT1=
EXTT2=
EXTT3=
EXTT4=
EXTT5=
EXTT6=
EXTT7=
EXTT8=
EXTT9=
EXTT10=
EXTT11=
EXTT12=
EXTT13=
EXTT14=
EXTT15=
EXTT16=
EXTT17=
EXTT18=
PLAYORDER=
